<?xml version="1.0" standalone="no"?>
<!DOCTYPE svg PUBLIC "-//W3C//DTD SVG 20010904//EN"
 "http://www.w3.org/TR/2001/REC-SVG-20010904/DTD/svg10.dtd">
<svg version="1.0" xmlns="http://www.w3.org/2000/svg"
 width="1040.000000pt" height="1280.000000pt" viewBox="0 0 1040.000000 1280.000000"
 preserveAspectRatio="xMidYMid meet">
<metadata>
Created by potrace 1.15, written by Peter Selinger 2001-2017
</metadata>
<g transform="translate(0.000000,1280.000000) scale(0.100000,-0.100000)"
fill="#000000" stroke="none">
<path d="M4900 12504 c-522 -46 -1005 -178 -1475 -403 -1678 -806 -2875 -2709
-3099 -4926 -50 -487 -50 -1061 0 -1550 222 -2215 1421 -4120 3099 -4926 427
-204 816 -320 1305 -386 194 -26 734 -26 935 0 502 66 934 196 1362 411 648
324 1226 809 1718 1441 120 154 356 510 465 700 515 905 818 1948 890 3070 13
206 13 724 0 930 -90 1394 -538 2671 -1295 3691 -298 401 -704 810 -1080 1089
-539 400 -1113 662 -1721 786 -282 57 -420 71 -754 74 -168 1 -325 1 -350 -1z"/>
</g>
</svg>
